# xmcd
# 
# Track frame offsets:
#     150
#     16758
#     29970
#     45155
#     61635
#     76535
#     91785
#     107649
#     122674
#     138358
#     151556
#     165004
#     179493
#     196996
#     214333
#     230388
#     243831
#     261756
# 
# Disc length: 3682
# 
# Revision: 1
# Processed by: cddbd v1.5.2PL0 Copyright (c) Steve Scherf et al.
# Submitted via: fre:ac v1.0.17
# 
DISCID=ce0e6012
DTITLE=Συλλογικός δίσκος - Τα ωραιότερα τσιφτετέλια 2
DYEAR=0
DGENRE=Τσιφτετέλια
TTITLE0=Καρράς Βασίλης - Πριγκηπέσσα [Σωκράτης Μάλαμας]
TTITLE1=Γλυκερία-Παπάζογλου Νίκος - Πήγα σε μάγισσες [Χ. Νικολόπουλος-Λ. Χαψιάδης]
TTITLE2=Κύπριος Στράτος - Μην περιμένεις πια [Απόστολος Καλδάρας]
TTITLE3=Βέρρα Χαρά - Θα κάνω ζημιές [Κ. Πίτσος-Σ. Κόρδας]
TTITLE4=Καζαντζίδης Στέλιος - Ήθελα νά 'μουνα πασάς [Στέλιος Χρυσίνης]
TTITLE5=Γαβαλάς Πάνος-Κούρτη Ρία - Ο μαχαραγιάς [Σ. Τζουανάκος-Ν. Γκούμας]
TTITLE6=Γιαννακάκη Έλενα - Μία είναι η ουσία [Χ. Νικολόπουλος-Λ. Χαψιάδης]
TTITLE7=Χριστοδουλόπουλος Μάκης - Φτιάξε μου ένα καφέ [Μ. Χριστοδουλόπουλος-Α. Σπυρόπουλος]
TTITLE8=Μακρόπουλος Νίκος - Άνω κάτω [Π. Αποστολίδης-Β. Μεγαλοοικονόμου]
TTITLE9=Γλυκερία - Τα πεντοχίλιαρα [Γιάννης Καραλής]
TTITLE10=Μενιδιάτης Μιχάλης - Το Χαρικλάκι [Παναγιώτης Τούντας]
TTITLE11=Πανταζής Λευτέρης - Φιλάκια [Sezen Aksu, απ. Η. Φιλίππου]
TTITLE12=Λύδια Γιώτα - Μέρα νύχτα μεθυσμένος [Γιάννης Δραγάτσης]
TTITLE13=Διονυσίου Άγγελος - Ο λαός τραγούδι θέλει[Τ.Σούκας-Γ.Βρούβας/Γ.Παπαγιαννόπουλος]
TTITLE14=Παπαδοπούλου Λένα - Θέλω να μ' αγαπάς [Αλέξανδρος]
TTITLE15=Άνευ ερμηνευτού - Το καινούριο τσιφτετέλι [Γιώργος Κόρος]
TTITLE16=Ζαζόπουλος Αλέκος - Για τίποτα [Π. Καπίρης-Φ. Θεοδώρου]
TTITLE17=Μαργαρίτης Γιώργος - Στου Παραδείσου την πόρτα [Γ. Εμμανουηλίδης-Α. Σπυρόπουλος]
EXTD=
EXTT0=
EXTT1=
EXTT2=
EXTT3=
EXTT4=
EXTT5=
EXTT6=
EXTT7=
EXTT8=
EXTT9=
EXTT10=
EXTT11=
EXTT12=
EXTT13=
EXTT14=
EXTT15=
EXTT16=
EXTT17=
PLAYORDER=
